<svg id="visual" viewBox="0 0 1920 1080" width="1920" height="1080" xmlns="http://www.w3.org/2000/svg" xmlns:xlink="http://www.w3.org/1999/xlink" version="1.1"><rect x="0" y="0" width="1920" height="1080" fill="#001220"></rect><defs><linearGradient id="grad1_0" x1="43.8%" y1="0%" x2="100%" y2="100%"><stop offset="14.444444444444446%" stop-color="#001220" stop-opacity="1"></stop><stop offset="85.55555555555554%" stop-color="#001220" stop-opacity="1"></stop></linearGradient></defs><defs><linearGradient id="grad2_0" x1="0%" y1="0%" x2="56.3%" y2="100%"><stop offset="14.444444444444446%" stop-color="#001220" stop-opacity="1"></stop><stop offset="85.55555555555554%" stop-color="#001220" stop-opacity="1"></stop></linearGradient></defs><g transform="translate(1920, 0)"><path d="M0 486C-59.2 429.5 -118.4 372.9 -196 339.5C-273.6 306 -369.5 295.7 -420.9 243C-472.3 190.3 -479.1 95.1 -486 0L0 0Z" fill="#3c42fa"></path></g><g transform="translate(0, 1080)"><path d="M0 -486C64 -437.8 128 -389.5 205 -355.1C282 -320.6 371.9 -299.9 420.9 -243C469.9 -186.1 477.9 -93.1 486 0L0 0Z" fill="#3c42fa"></path></g></svg>
