<svg id="visual" viewBox="0 0 450 900" width="450" height="900" xmlns="http://www.w3.org/2000/svg" xmlns:xlink="http://www.w3.org/1999/xlink" version="1.1"><rect x="0" y="0" width="450" height="900" fill="#001220"></rect><defs><linearGradient id="grad1_0" x1="0%" y1="0%" x2="100%" y2="100%"><stop offset="30%" stop-color="#001220" stop-opacity="1"></stop><stop offset="70%" stop-color="#001220" stop-opacity="1"></stop></linearGradient></defs><defs><linearGradient id="grad2_0" x1="0%" y1="0%" x2="100%" y2="100%"><stop offset="30%" stop-color="#001220" stop-opacity="1"></stop><stop offset="70%" stop-color="#001220" stop-opacity="1"></stop></linearGradient></defs><g transform="translate(450, 0)"><path d="M0 135C-18.2 131.4 -36.3 127.9 -49 118.3C-61.6 108.7 -68.7 93 -82 82C-95.3 71 -114.9 64.6 -124.7 51.7C-134.6 38.8 -134.8 19.4 -135 0L0 0Z" fill="#3c47fa"></path></g><g transform="translate(0, 900)"><path d="M0 -135C18.9 -134.3 37.8 -133.6 51.7 -124.7C65.5 -115.8 74.3 -98.8 85.6 -85.6C96.8 -72.3 110.5 -63 119.2 -49.4C127.8 -35.7 131.4 -17.9 135 0L0 0Z" fill="#3c47fa"></path></g></svg>