<svg id="visual" viewBox="0 0 600 900" width="600" height="900" xmlns="http://www.w3.org/2000/svg" xmlns:xlink="http://www.w3.org/1999/xlink" version="1.1"><rect x="0" y="0" width="600" height="900" fill="#001220"></rect><defs><linearGradient id="grad1_0" x1="0%" y1="0%" x2="100%" y2="100%"><stop offset="30%" stop-color="#001220" stop-opacity="1"></stop><stop offset="70%" stop-color="#001220" stop-opacity="1"></stop></linearGradient></defs><defs><linearGradient id="grad2_0" x1="0%" y1="0%" x2="100%" y2="100%"><stop offset="30%" stop-color="#001220" stop-opacity="1"></stop><stop offset="70%" stop-color="#001220" stop-opacity="1"></stop></linearGradient></defs><g transform="translate(600, 0)"><path d="M0 216.3C-24.8 201 -49.6 185.7 -71.6 172.8C-93.5 159.8 -112.7 149.2 -135.8 135.8C-158.8 122.3 -185.8 105.9 -199.9 82.8C-213.9 59.7 -215.1 29.8 -216.3 0L0 0Z" fill="#3c47fa"></path></g><g transform="translate(0, 900)"><path d="M0 -216.3C27 -212 54 -207.6 82.3 -198.6C110.5 -189.6 140.1 -176 153 -153C165.9 -129.9 162.2 -97.5 170 -70.4C177.8 -43.4 197.1 -21.7 216.3 0L0 0Z" fill="#3c47fa"></path></g></svg>