<svg id="visual" viewBox="0 0 675 900" width="675" height="900" xmlns="http://www.w3.org/2000/svg" xmlns:xlink="http://www.w3.org/1999/xlink" version="1.1"><rect x="0" y="0" width="675" height="900" fill="#001220"></rect><defs><linearGradient id="grad1_0" x1="0%" y1="0%" x2="100%" y2="100%"><stop offset="30%" stop-color="#001220" stop-opacity="1"></stop><stop offset="70%" stop-color="#001220" stop-opacity="1"></stop></linearGradient></defs><defs><linearGradient id="grad2_0" x1="0%" y1="0%" x2="100%" y2="100%"><stop offset="30%" stop-color="#001220" stop-opacity="1"></stop><stop offset="70%" stop-color="#001220" stop-opacity="1"></stop></linearGradient></defs><g transform="translate(675, 0)"><path d="M0 225C-31.4 221.8 -62.8 218.6 -83.8 202.3C-104.8 186.1 -115.5 156.9 -137.2 137.2C-158.8 117.5 -191.4 107.4 -207.9 86.1C-224.3 64.8 -224.7 32.4 -225 0L0 0Z" fill="#3c47fa"></path></g><g transform="translate(0, 900)"><path d="M0 -225C23.9 -207.7 47.9 -190.3 75 -181.1C102.1 -171.8 132.4 -170.6 156.3 -156.3C180.1 -141.9 197.5 -114.3 207.9 -86.1C218.3 -57.9 221.6 -28.9 225 0L0 0Z" fill="#3c47fa"></path></g></svg>