<svg id="visual" viewBox="0 0 540 960" width="540" height="960" xmlns="http://www.w3.org/2000/svg" xmlns:xlink="http://www.w3.org/1999/xlink" version="1.1"><rect x="0" y="0" width="540" height="960" fill="#001220"></rect><defs><linearGradient id="grad1_0" x1="0%" y1="0%" x2="100%" y2="100%"><stop offset="30%" stop-color="#001220" stop-opacity="1"></stop><stop offset="70%" stop-color="#001220" stop-opacity="1"></stop></linearGradient></defs><defs><linearGradient id="grad2_0" x1="0%" y1="0%" x2="100%" y2="100%"><stop offset="30%" stop-color="#001220" stop-opacity="1"></stop><stop offset="70%" stop-color="#001220" stop-opacity="1"></stop></linearGradient></defs><g transform="translate(540, 0)"><path d="M0 162C-21.3 159.8 -42.7 157.7 -62 149.7C-81.3 141.6 -98.6 127.8 -111.7 111.7C-124.8 95.7 -133.7 77.5 -141.4 58.6C-149 39.6 -155.5 19.8 -162 0L0 0Z" fill="#3c47fa"></path></g><g transform="translate(0, 960)"><path d="M0 -162C18.6 -150.6 37.3 -139.2 53.6 -129.3C69.9 -119.5 83.8 -111.2 101.1 -101.1C118.4 -91 139 -79.1 149.7 -62C160.4 -44.8 161.2 -22.4 162 0L0 0Z" fill="#3c47fa"></path></g></svg>